<?xml version="1.0" encoding="UTF-8"?>
<svg version="1.1" viewBox="0 0 1024 1024" width="1280" height="1280" xmlns="http://www.w3.org/2000/svg">
<path transform="translate(0)" d="m0 0h1024v1024h-1024z" fill="#D8D8D8"/>
<path transform="translate(491,207)" d="m0 0h31l21 3 21 5 19 7 16 8 16 9 11 8 11 9 10 9 7 6v2h2l7 8 11 13 14 21 12 21 9 21 8 24 6 29 2 15v40l-3 21-7 29-7 20-9 20-8 15-9 14-10 14-13 15-16 16-13 10-13 9-16 9-3 1v-12l19-12 16-12 16-15 11-11 12-16 10-15 12-21 6-13 8-22 2-8h-2l-2 4-8 13-8 16-9 10-10 9-11 8-9 7-11 9-9 8-7 11-11 6-13 1-4-4-6-3-1-4-2-5h-2l-2-6v-15l4-7 3-5 6-3 3-3h8l6 3 4 4 7-2 3-1 2-4 8-17 1-6 1-24 5-16h-8l-13-4-9-7-9-10-3 4-7 11-22 22-2 3v36l-4 8 1 8v7l7 8 5 14 4 24v18l-1 7 2 18v10l-3 27-2 7-10-1-3 9-4 9v6l3 6 1 4v22l-5 15-13 24-10 19-1 4 4 2 1 1v7l-6 9-2 5 1 8-1 1-2 16-2 7-2 2h-3l3 6-1 5-2 4v7l2 10v5l-4 3-22 1h-24l-14-3-3-6 1-11 4-5 8-4 4-5 6-15 2-6v-5l-3-4h7l1-2-5-16-14-29-4-9-5-14-1-14 5-20v-9l-6-20-5-9-16-1-7-31-4-18-2-17-1-16-1-5v-10l5-22 4-18 5-8 3-4 2-7-5-9v-17l1-7v-9l-5-9-9-8-8-7-9-10-5-9v-2l-5 5-7 8-8 6-10 4-10 1 4 11 1 6v10l-1 6v8l5 13 8 14 5 1 6-4 3-3 9 1 4 4 7 3 3 9 1 1 2 11v6l-4 4h-2l-1 5-3 5-5 2-3 4h-9l-11-4-8-6-6-12-16-12-13-10-14-11-8-7-6-8-5-11-6-12-7-9 4 21 7 19 13 25 10 17 12 16 11 13 11 12 8 7 16 13 17 11 15 8v12l-6-2-17-9-20-14-10-8-12-11-10-10-9-11-14-19-10-17-12-27-8-24-7-30-2-17-1-18v-20l2-26 5-25 10-30 9-20 12-22 10-14 8-10 12-13 16-16 11-9 12-9 13-8 21-11 24-9 24-6z" fill="#000101"/>
<path transform="translate(495,218)" d="m0 0h20l24 3 24 6 21 8 19 10 15 10 11 9 12 11 10 9 10 11 10 13 11 17 15 29 11 30 6 25 3 19 1 10v23l-3 19-2 7-2-1-5-18-6-17-5-6-3-16-6-12-11-12-10-8-9-6-8-16-10-10-13-7-13-3h-27l-8-8-14-8-25-10-1-5v-22l3-1 2-4 4-10 1-8-3-5h-4v-25l-3-1-3-8-4-4-4-2v-2l-9-3-11-1-7 2-9 2-5 4-6 4-4 8-1 7v20l-5 2 1 14 2 8 5 1v23l-2 5-13 4-20 10-13 10-5 5-7-1-5-1h-14l-16 4-12 7-9 10-6 10-3 8-7 3-9 6-9 8-7 11-5 12-2 10-5 5-3 7-3 15-3 8-3 3-5 12-2-4-2-20v-30l3-22 5-23 9-27 11-25 13-23 10-14 8-10 12-13 10-10 10-8 13-10 17-11 16-8 19-8 23-6 19-3z" fill="#D9D9D9"/>
<path transform="translate(524,395)" d="m0 0 65 1 2 2v8l-3 3h-18l-5 5-8 17-15 39-14 37-14 35-2 1h-8l-4-6-11-28-11-27-14-33-14-31-6-8-3-1h-14l-4-3v-8l2-2h70l3 3-1 7-3 3-13-1v6l10 23 13 32 12 29 1 1 13-33 11-29 5-16v-6l-5-5-2-1h-13l-5-4v-7z" fill="#D9D9D9"/>
<path transform="translate(505,847)" d="m0 0 6 2 6 8 4 5 1 12 2 8-5 11-6 2-1-6h-3l-4 10v5h-21l-7-4-5-3-6-1 1-5 5-3 8-5 3-3h6l-1-2h-3l1-4 2-3h3l-2-4 5-2-2 8h2l1-5 1-2h4v-3h4l1-3-3-2v-8z" fill="#D7D7D7"/>
<path transform="translate(513,691)" d="m0 0 3 3 4 17 5 12v6l-6 14v14l4 13-1 14-5 15-5 5h-1l1-8 4-8 1-3v-9l-4-12-8-15-1-3v-10l3-10 2-16 2-6 1-12z" fill="#D9D9D9"/>
<path transform="translate(517,811)" d="m0 0 6 1 14 6 3 5-6 7-3 2-1 3v7l3 1-1 4-2 2v7l1 5-4 4h-2l-2-10-3-8-3-2-4-11-2-15v-6l2 1 3 7 3 1z" fill="#D9D9D9"/>
<path transform="translate(519,897)" d="m0 0h5v8l-3 2h-10l-2-2 1-5z" fill="#D9D9D9"/>
</svg>
